<svg width="18" height="18" viewBox="0 0 18 18" fill="none" xmlns="http://www.w3.org/2000/svg">
<path d="M16.9334 2.21614L15.7786 1.72517V9.64205L17.8728 4.50441C18.2261 3.61014 17.8211 2.58436 16.9334 2.21614ZM0.127852 5.46004L4.4025 15.937C4.52837 16.2557 4.74308 16.5301 5.02022 16.7264C5.29736 16.9227 5.62485 17.0322 5.9624 17.0417C6.18647 17.0417 6.41916 16.9978 6.64324 16.9014L12.9949 14.2274C13.6412 13.9556 14.0377 13.3068 14.0549 12.658C14.0635 12.4301 14.0204 12.1758 13.9429 11.9479L9.63377 1.47091C9.51196 1.15005 9.29802 0.873914 9.0198 0.678451C8.74159 0.482989 8.41197 0.377251 8.07386 0.375C7.84979 0.375 7.62572 0.427604 7.41026 0.50651L1.06724 3.18054C0.645604 3.35619 0.309793 3.69499 0.133637 4.12244C-0.0425189 4.5499 -0.0445997 5.03103 0.127852 5.46004ZM14.0463 2.12846C14.0463 1.66342 13.8647 1.21742 13.5415 0.888577C13.2182 0.559739 12.7798 0.375 12.3227 0.375H11.073L14.0463 7.68694" fill="black"/>
</svg>
