<svg width="19" height="16" viewBox="0 0 19 16" fill="none" xmlns="http://www.w3.org/2000/svg">
<path d="M17.0094 0.5H12.6406C11.1375 0.5 9.83125 1.69241 9.50313 3.37539C9.17188 1.69241 7.86875 0.5 6.36562 0.5H2C1.17188 0.5 0.5 1.26986 0.5 2.21879V11.0204C0.5 11.9693 1.17188 12.7392 2 12.7392H4.80312C7.99687 12.7392 8.95 13.6129 9.40625 15.4248C9.42812 15.5251 9.56875 15.5251 9.59375 15.4248C10.0531 13.6129 11.0062 12.7392 14.1969 12.7392H17C17.8281 12.7392 18.5 11.9693 18.5 11.0204V2.22237C18.5 1.27703 17.8344 0.50715 17.0094 0.5ZM8.0625 10.0035C8.0625 10.0715 8.01562 10.1288 7.95312 10.1288H2.94375C2.88438 10.1288 2.83437 10.0752 2.83437 10.0035V9.18348C2.83437 9.11541 2.88125 9.05818 2.94375 9.05818H7.95625C8.01562 9.05818 8.06562 9.1118 8.06562 9.18348V10.0035H8.0625ZM8.0625 7.82276C8.0625 7.89083 8.01562 7.94806 7.95312 7.94806H2.94375C2.88438 7.94806 2.83437 7.89444 2.83437 7.82276V7.00276C2.83437 6.9347 2.88125 6.87746 2.94375 6.87746H7.95625C8.01562 6.87746 8.06562 6.93109 8.06562 7.00276V7.82276H8.0625ZM8.0625 5.64204C8.0625 5.71011 8.01562 5.76734 7.95312 5.76734H2.94375C2.88438 5.76734 2.83437 5.71372 2.83437 5.64204V4.82204C2.83437 4.75398 2.88125 4.69674 2.94375 4.69674H7.95625C8.01562 4.69674 8.06562 4.75037 8.06562 4.82204V5.64204H8.0625ZM16.1656 9.99991C16.1656 10.068 16.1187 10.1252 16.0562 10.1252H11.0469C10.9875 10.1252 10.9375 10.0716 10.9375 9.99991V9.1799C10.9375 9.11184 10.9844 9.0546 11.0469 9.0546H16.0594C16.1187 9.0546 16.1687 9.10823 16.1687 9.1799V9.99991H16.1656ZM16.1656 7.81919C16.1656 7.88725 16.1187 7.94449 16.0562 7.94449H11.0469C10.9875 7.94449 10.9375 7.89086 10.9375 7.81919V6.99919C10.9375 6.93112 10.9844 6.87389 11.0469 6.87389H16.0594C16.1187 6.87389 16.1687 6.92751 16.1687 6.99919V7.81919H16.1656ZM16.1656 5.63847C16.1656 5.70653 16.1187 5.76377 16.0562 5.76377H11.0469C10.9875 5.76377 10.9375 5.71014 10.9375 5.63847V4.82204C10.9375 4.75398 10.9844 4.69674 11.0469 4.69674H16.0594C16.1187 4.69674 16.1687 4.75037 16.1687 4.82204V5.63847H16.1656Z" fill="black"/>
</svg>
