<svg width="18" height="18" viewBox="0 0 18 18" fill="none" xmlns="http://www.w3.org/2000/svg">
<path d="M0 9.18351C0 7.12394 5.96046e-08 6.09415 0.46728 5.24047C0.93456 4.38679 1.78825 3.85696 3.49563 2.79732L5.29563 1.68018C7.10045 0.560061 8.00289 0 9 0C9.99711 0 10.8995 0.560061 12.7044 1.68018L14.5044 2.79731C16.2118 3.85696 17.0654 4.38679 17.5327 5.24047C18 6.09415 18 7.12394 18 9.18351V10.5525C18 14.0632 18 15.8187 16.9456 16.9093C15.8912 18 14.1941 18 10.8 18H7.2C3.80588 18 2.10884 18 1.05441 16.9093C1.19209e-07 15.8187 0 14.0632 0 10.5525V9.18351Z" fill="black"/>
<path d="M6.70199 12.0578C6.4025 11.8358 5.97976 11.8986 5.75777 12.1981C5.53577 12.4976 5.5986 12.9203 5.89809 13.1423C6.77326 13.7911 7.84359 14.175 9 14.175C10.1565 14.175 11.2268 13.7911 12.102 13.1423C12.4015 12.9203 12.4643 12.4976 12.2423 12.1981C12.0203 11.8986 11.5976 11.8358 11.2981 12.0578C10.6426 12.5437 9.85131 12.825 9 12.825C8.14869 12.825 7.3575 12.5437 6.70199 12.0578Z" fill="white"/>
</svg>
