<svg width="19" height="20" viewBox="0 0 19 20" fill="none" xmlns="http://www.w3.org/2000/svg">
<path d="M8.85601 0.770174C7.31891 2.66599 5.6784 4.61083 4.83483 5.54239C4.69491 5.69969 4.17781 6.2145 3.68708 6.6905C2.43794 7.89786 1.91882 8.45761 1.38144 9.17263C0.614923 10.1941 0.176913 11.1604 0.0349652 12.1491C-0.00761915 12.4331 -0.0116748 13.0358 0.0248261 13.2993C0.225581 14.7559 1.14013 15.7814 2.71981 16.3146C3.36465 16.5332 4.06628 16.6517 4.69896 16.6517C5.1897 16.6517 5.73721 16.572 6.40234 16.4004C7.40408 16.145 8.17263 15.7773 8.59644 15.3524C8.76678 15.1828 8.83978 15.0746 8.9209 14.8764L8.96956 14.76V14.8519C8.97159 15.2789 8.73636 16.5557 8.5133 17.3422C8.08543 18.8437 7.55617 19.7569 7.00055 19.9591C6.89104 19.998 6.89713 19.998 9.63672 20H12.3824L12.1796 19.7896C11.1292 18.6885 10.4093 16.8212 10.3566 15.046L10.3465 14.7191L10.389 14.8212C10.6466 15.4627 11.9241 16.1348 13.4997 16.4556C14.0959 16.5761 14.2845 16.5965 14.7996 16.5965C15.2051 16.5965 15.2923 16.5924 15.4708 16.5516C16.4604 16.333 17.3242 15.8652 17.967 15.1951C19.3541 13.7467 19.3439 11.7303 17.9386 9.57099C17.6182 9.0807 17.2289 8.5761 16.7179 7.99796C16.3711 7.60368 15.3511 6.58427 14.6475 5.92441C13.4146 4.77017 13.0313 4.38202 12.2851 3.53422C11.4638 2.6047 10.3242 1.16037 9.65091 0.198161C9.57386 0.0898876 9.50491 0 9.4968 0C9.48869 0 9.19871 0.347293 8.85601 0.770174Z" fill="black"/>
</svg>
