<svg width="19" height="20" viewBox="0 0 19 20" fill="none" xmlns="http://www.w3.org/2000/svg">
<path d="M10.5298 18.4297L15.6011 15.5018C16.1425 15.1892 16.4126 15.0329 16.6094 14.8143C16.7837 14.6208 16.9154 14.3929 16.9958 14.1454C17.0865 13.8662 17.0865 13.5542 17.0865 12.9321V7.06772C17.0865 6.44553 17.0865 6.13363 16.9958 5.85448C16.9154 5.60691 16.7837 5.37886 16.6094 5.18541C16.4135 4.96772 16.1439 4.8121 15.6072 4.50224L10.5289 1.57028C9.98753 1.25772 9.71744 1.10176 9.42962 1.0406C9.17504 0.986468 8.91174 0.986468 8.65716 1.0406C8.36934 1.10176 8.09833 1.25772 7.55695 1.57028L2.48471 4.49874C1.94399 4.81093 1.67383 4.9669 1.47709 5.18541C1.3029 5.37886 1.17136 5.60691 1.09092 5.85448C1 6.13429 1 6.44701 1 7.07212V12.928C1 13.553 1 13.8656 1.09092 14.1454C1.17136 14.3929 1.3029 14.6208 1.47709 14.8143C1.67395 15.0329 1.9443 15.1892 2.48566 15.5018L7.55695 18.4297C8.09833 18.7422 8.36934 18.8983 8.65716 18.9595C8.91174 19.0135 9.17504 19.0135 9.42962 18.9595C9.71744 18.8983 9.98846 18.7422 10.5298 18.4297Z" stroke="black" stroke-width="2" stroke-linecap="round" stroke-linejoin="round"/>
<path d="M6.25696 9.99994C6.25696 11.5387 7.50438 12.7862 9.04325 12.7862C10.5821 12.7862 11.8295 11.5387 11.8295 9.99994C11.8295 8.46107 10.5821 7.21361 9.04325 7.21361C7.50438 7.21361 6.25696 8.46107 6.25696 9.99994Z" stroke="black" stroke-width="2" stroke-linecap="round" stroke-linejoin="round"/>
</svg>
